<svg width="59" height="59" viewBox="0 0 59 59" fill="none" xmlns="http://www.w3.org/2000/svg">
<path d="M48.1833 51.625L32.6958 36.1375C31.4667 37.1208 30.0531 37.8993 28.4552 38.4729C26.8573 39.0465 25.1569 39.3333 23.3542 39.3333C18.8882 39.3333 15.1085 37.7866 12.0151 34.6932C8.9217 31.5998 7.375 27.8201 7.375 23.3542C7.375 18.8882 8.9217 15.1085 12.0151 12.0151C15.1085 8.9217 18.8882 7.375 23.3542 7.375C27.8201 7.375 31.5998 8.9217 34.6932 12.0151C37.7866 15.1085 39.3333 18.8882 39.3333 23.3542C39.3333 25.1569 39.0465 26.8573 38.4729 28.4552C37.8993 30.0531 37.1208 31.4667 36.1375 32.6958L51.625 48.1833L48.1833 51.625ZM23.3542 34.4167C26.4271 34.4167 29.0391 33.3411 31.1901 31.1901C33.3411 29.0391 34.4167 26.4271 34.4167 23.3542C34.4167 20.2812 33.3411 17.6693 31.1901 15.5182C29.0391 13.3672 26.4271 12.2917 23.3542 12.2917C20.2812 12.2917 17.6693 13.3672 15.5182 15.5182C13.3672 17.6693 12.2917 20.2812 12.2917 23.3542C12.2917 26.4271 13.3672 29.0391 15.5182 31.1901C17.6693 33.3411 20.2812 34.4167 23.3542 34.4167Z" fill="black"/>
</svg>
