<svg width="134" height="89" viewBox="0 0 134 89" fill="none" xmlns="http://www.w3.org/2000/svg">
<path d="M48.8232 84.7672V56.7973H34.354V6.44606H99.9237V56.6867C99.3405 56.6867 98.7851 56.6867 98.2296 56.6867C87.0097 56.6867 75.7898 56.7143 64.5977 56.659C63.4868 56.659 62.9592 57.0186 62.4593 57.9869C58.2379 66.5909 53.961 75.1949 49.7119 83.7712C49.5453 84.1309 49.3231 84.4628 49.1287 84.8225L48.8232 84.7672ZM43.7132 39.202C43.7132 40.0043 43.6576 40.779 43.7409 41.5813C43.7409 41.6643 43.7687 41.7196 43.7965 41.8026C44.0187 42.2453 44.6574 42.3006 44.9629 41.9133C45.0462 41.8026 45.1018 41.6643 45.1295 41.5536C45.2406 40.4193 45.1851 39.285 45.1573 38.1507C45.1295 37.4314 45.2684 36.8781 46.1571 36.8781C47.018 36.8781 47.4068 37.3208 47.3791 38.1784C47.3513 39.3127 47.3235 40.447 47.4068 41.5813C47.4068 41.6643 47.4346 41.7473 47.4624 41.8026C47.6846 42.2729 48.3511 42.3006 48.6566 41.8856C48.7399 41.7749 48.7677 41.6643 48.7954 41.5813C48.9065 40.5577 48.851 39.5064 48.8232 38.4827C48.7954 37.7081 48.7399 36.9058 49.8508 36.9335C50.8228 36.9611 51.045 37.6251 51.0172 38.4551C50.9894 39.451 50.9339 40.447 51.045 41.4153C51.045 41.4983 51.0727 41.5813 51.1283 41.6643C51.406 42.2729 52.3503 42.1346 52.4336 41.4706C52.5169 40.447 52.4613 39.3957 52.4613 38.3721C52.4336 36.2695 51.1283 35.2459 49.0454 35.6609C48.4622 35.7715 47.8234 35.7715 47.2402 35.6609C44.7685 35.1352 43.7409 35.9098 43.7409 38.3997C43.6854 38.6211 43.6854 38.9254 43.7132 39.202ZM81.011 21.2471C78.2338 20.9981 77.1507 21.7451 76.984 23.8477C76.9563 24.2903 76.9563 24.733 76.984 25.1756C77.0118 26.3929 77.6228 27.6102 78.7892 28.1358C79.7612 28.5508 81.8164 28.4955 82.344 27.3612C82.4274 27.1399 82.4551 26.9185 82.4551 26.6972C82.4551 25.4523 82.4829 24.2073 82.4829 22.9624C82.4829 22.2431 82.4829 21.5238 82.4829 20.8045C82.4829 20.3065 82.6218 19.4765 82.3718 19.0339C82.233 18.7849 81.8719 18.6742 81.5942 18.7849C80.6777 19.0892 81.011 20.5555 81.011 21.2471ZM65.2365 35.5225C65.2365 35.4672 63.4035 35.6055 63.2091 35.6332C62.7648 35.7162 62.3204 35.8822 61.9872 36.1865C61.1818 36.9888 61.2929 38.3997 61.2651 39.4234C61.2651 39.534 61.2651 39.617 61.2651 39.7277C61.2929 39.866 61.3484 39.9767 61.4039 40.115C61.7094 40.779 61.9316 41.7749 62.6259 42.1623C63.0147 42.3836 63.4591 42.4112 63.9034 42.3836C64.5977 42.3282 65.4031 42.3006 66.0974 42.1346C66.2918 42.1069 66.4584 41.9963 66.5695 41.8303C66.6806 41.6643 66.6806 41.4706 66.6806 41.277C66.6806 39.8107 66.7084 38.3167 66.7084 36.8505C66.7084 36.0482 66.7084 35.2735 66.6806 34.4712C66.6806 34.0009 66.7362 33.3923 66.2918 33.088C65.7919 32.756 65.4031 33.171 65.292 33.6413C65.1532 34.2222 65.2365 34.8309 65.2365 35.5225ZM81.0665 35.6055C79.4002 35.4119 77.7894 35.3565 77.3451 37.0718C77.0118 38.2891 77.0674 39.7277 77.3451 40.9726C77.6228 42.3006 78.9003 42.7709 80.1501 42.5219C80.9832 42.3559 82.3718 41.8579 82.3996 41.443C82.6218 38.8424 82.5384 36.2418 82.4829 33.6413C82.4829 33.4199 82.2607 33.088 81.8719 32.9773C81.5664 32.8943 81.1498 33.3646 81.0943 33.6413C80.9832 34.2222 81.0665 34.8309 81.0665 35.6055ZM51.4893 25.3969C52.4891 25.3969 53.3223 25.3693 54.1554 25.3969C55.2108 25.4246 55.544 24.8436 55.5163 23.903C55.4607 22.2707 54.3776 21.1641 52.8502 21.1088C51.2672 21.0811 50.184 22.1047 50.0452 23.737C50.0174 24.235 50.0174 24.733 50.0452 25.2033C50.1007 27.5272 51.656 28.7168 53.9333 28.0528C53.961 28.0528 54.0166 28.0252 54.0444 27.9975C54.7109 27.6932 54.4054 26.6142 53.6555 26.7249C53.6555 26.7249 53.6555 26.7249 53.6278 26.7249C52.628 26.9186 51.767 26.9739 51.4893 25.3969ZM58.0435 38.1507C57.2937 38.2061 56.5438 38.0954 55.9606 38.3444C55.2941 38.6487 54.4887 39.1467 54.2665 39.7554C54.0444 40.364 54.2943 41.4153 54.7664 41.8856C55.8495 43.0199 57.3492 42.6879 58.7101 42.3282C59.9598 41.9963 59.4599 40.8896 59.5432 40.0597C59.5988 39.534 59.5432 38.9807 59.5432 38.4274C59.5432 35.9652 58.1268 34.9139 55.7384 35.6609C55.6829 35.6885 55.6274 35.6885 55.5996 35.7162C54.9331 36.0482 55.2663 37.0995 55.9884 36.9888C55.9884 36.9888 55.9884 36.9888 56.0162 36.9888C56.9604 36.8505 57.8491 36.6291 58.0435 38.1507ZM65.9585 28.2465C67.2638 28.2465 68.2914 27.8592 68.5691 26.5036C68.7913 25.3693 68.2359 24.6776 67.2083 24.2073C66.7362 23.986 66.3474 23.6817 65.9308 23.3774C65.7641 23.239 65.8475 22.9624 66.0419 22.9624C66.5418 22.907 67.0694 22.8794 67.5693 22.7964C67.8748 22.7411 68.1525 22.5751 68.4303 22.4644C68.2914 22.1324 68.1803 21.5791 67.9859 21.5514C67.1805 21.3854 66.264 21.1088 65.542 21.3578C64.8754 21.5791 64.2089 22.3537 63.959 23.0177C63.6257 23.9583 64.2089 24.7053 65.1532 25.1203C65.6531 25.3416 66.1807 25.4799 66.6529 25.7289C66.8473 25.8396 67.0694 26.2269 67.0417 26.3929C66.9861 26.6142 66.6529 26.8356 66.4307 26.8909C66.0974 26.9462 65.7641 26.8079 65.4031 26.8356C65.292 26.8356 65.1532 26.8632 65.0421 26.8909C64.5422 26.9462 64.3755 27.5825 64.7644 27.9145C64.8754 28.0252 65.0143 28.1082 65.1532 28.1912C65.3476 28.2742 65.7086 28.2188 65.9585 28.2465ZM75.1233 19.3935C75.3455 19.1445 75.2344 18.7849 74.9289 18.6742C74.8178 18.6466 74.679 18.6189 74.5956 18.6466C74.2346 18.7296 73.7625 19.0062 73.6236 19.3382C72.5961 21.8004 71.5963 24.2627 70.6798 26.7802C70.652 26.8356 70.652 26.9185 70.652 26.9739C70.6242 27.6102 71.4852 27.9145 71.9018 27.4442C71.9573 27.3889 72.0128 27.3059 72.0406 27.2505C73.0404 24.899 73.9569 22.4921 74.9011 20.1128C74.9567 19.8638 75.04 19.6425 75.1233 19.3935ZM84.9824 28.3018C85.2879 28.4125 85.6489 28.2742 85.8155 27.9975C85.8989 27.8592 85.9544 27.7208 86.01 27.5825C87.0653 24.9543 88.0928 22.3537 89.0926 19.7255C89.1204 19.6702 89.1204 19.6149 89.1204 19.5595C89.0926 19.0615 88.565 18.7849 88.1206 18.9509C87.9818 19.0062 87.8707 19.0615 87.8429 19.1722C86.732 21.8281 85.6767 24.484 84.6769 27.1675C84.538 27.4442 84.8713 27.9145 84.9824 28.3018ZM58.3768 28.5232C58.5434 28.2188 58.7101 27.9145 58.8211 27.6102C59.8765 25.0096 60.904 22.4091 61.9038 19.7808C61.9316 19.6702 61.9316 19.5595 61.8761 19.4212C61.7372 18.9785 61.1818 18.7572 60.7652 19.0339C60.7096 19.0892 60.6541 19.1169 60.6263 19.1999C59.5432 21.8281 58.4879 24.484 57.4881 27.1675C57.4325 27.3335 57.4881 27.5549 57.5992 27.7762C57.738 28.0805 58.0158 28.3848 58.3768 28.5232ZM68.7635 39.3957C68.7635 40.1427 68.6802 40.8896 68.7913 41.6089C68.7913 41.6366 68.8191 41.6919 68.8191 41.7196C69.0135 42.2729 69.8466 42.3559 70.0966 41.8026C70.1244 41.7473 70.1244 41.6919 70.1521 41.6366C70.2354 40.5577 70.2077 39.4787 70.1799 38.3721C70.1799 37.9848 70.1244 37.4038 70.4021 37.0995C70.8187 36.6292 71.4574 37.1271 71.9295 36.8228C72.5961 36.3802 71.9851 35.7162 71.4574 35.5225C71.0131 35.3565 70.4854 35.4119 70.041 35.6055C69.3467 35.9098 68.8468 36.5462 68.7635 37.3208C68.708 37.9848 68.7635 38.7041 68.7635 39.3957ZM75.1789 39.036C75.1789 38.2061 75.2344 37.3485 75.1511 36.5185C75.1511 36.4078 75.0955 36.3248 75.04 36.2142C74.7901 35.8268 74.2068 35.7992 73.9291 36.1865C73.8458 36.2972 73.7903 36.4078 73.7903 36.4908C73.7347 38.2061 73.7347 39.949 73.7903 41.6643C73.7903 41.7749 73.8736 41.8856 73.9569 41.9963C74.2624 42.3559 74.8734 42.3006 75.0955 41.8579C75.1233 41.8026 75.1511 41.7473 75.1511 41.6919C75.2344 40.8343 75.1789 39.9213 75.1789 39.036Z" fill="#FFED00"/>
<path d="M75.1233 19.3935C75.04 19.6149 74.9845 19.8639 74.8734 20.0852L75.1233 19.3935Z" fill="#FFED00"/>
<path d="M80.9832 26.5866C80.0112 26.9462 78.9003 27.2229 78.6504 26.1439C78.4004 25.0926 78.7614 23.8753 78.9836 22.7687C79.0114 22.6304 79.9279 22.5197 80.3167 22.6581C80.6222 22.7687 80.9277 23.2667 80.9554 23.654C81.0388 24.6223 80.9832 25.6183 80.9832 26.5866Z" fill="#FFED00"/>
<path d="M64.0701 36.9335C64.0423 36.9335 64.0145 36.9335 63.9867 36.9335C63.4035 36.9888 62.9592 37.6528 62.7925 38.1508C62.6259 38.5934 62.6537 39.0914 62.6815 39.5894C62.7092 40.0044 62.7648 40.447 63.0425 40.779C63.3202 41.1386 63.8201 41.3876 64.2645 41.36C65.2087 41.277 65.2365 39.9767 65.3198 39.285C65.3753 38.8701 65.3476 38.4274 65.2643 38.0401C65.1532 37.4591 64.7088 36.9058 64.0701 36.9335Z" fill="#FFED00"/>
<path d="M81.1499 39.2297C81.0388 39.8384 81.1221 40.5853 80.7888 41.0556C80.3167 41.7473 78.7615 41.1663 78.5948 40.2533C78.4837 39.6447 78.5115 38.9807 78.5393 38.3444C78.5393 37.4868 78.9281 36.9058 79.8723 36.9058C80.8166 36.9058 81.1776 37.4315 81.0665 38.3444C81.0388 38.6487 81.0665 38.9254 81.0665 39.2297C81.0943 39.202 81.1221 39.2297 81.1499 39.2297Z" fill="#FFED00"/>
<path d="M53.7389 24.0137L51.6282 23.9583C51.4893 23.7647 51.5171 23.488 51.6837 23.322C52.017 22.9901 52.378 22.6027 52.7391 22.5751C53.0446 22.5751 53.3778 22.8517 53.6833 23.156C53.9333 23.3774 53.961 23.737 53.7389 24.0137Z" fill="#FFED00"/>
<path d="M57.7936 39.2574C58.2379 40.7513 57.988 41.3876 56.8771 41.2216C56.405 41.1386 56.0162 40.6683 55.5996 40.3917C56.2939 40.032 56.9882 39.6724 57.7936 39.2574Z" fill="#FFED00"/>
</svg>
